<svg width="441" height="493" viewBox="0 0 441 493" fill="none" xmlns="http://www.w3.org/2000/svg">
<mask id="path-1-inside-1" fill="white">
<rect x="119.374" y="42.4697" width="205.061" height="205.061" rx="6"/>
</mask>
<rect x="119.374" y="42.4697" width="205.061" height="205.061" rx="6" stroke="#54EABD" stroke-opacity="0.6" stroke-width="62" mask="url(#path-1-inside-1)"/>
<mask id="path-2-inside-2" fill="white">
<rect x="220.5" width="205.061" height="205.061" rx="6" transform="rotate(45 220.5 0)"/>
</mask>
<rect x="220.5" width="205.061" height="205.061" rx="6" transform="rotate(45 220.5 0)" stroke="#54EABD" stroke-opacity="0.6" stroke-width="62" mask="url(#path-2-inside-2)"/>
<mask id="path-3-inside-3" fill="white">
<rect x="148.869" y="19.4263" width="205.061" height="205.061" rx="6" transform="rotate(15 148.869 19.4263)"/>
</mask>
<rect x="148.869" y="19.4263" width="205.061" height="205.061" rx="6" transform="rotate(15 148.869 19.4263)" stroke="#54EABD" stroke-opacity="0.6" stroke-width="62" mask="url(#path-3-inside-3)"/>
<mask id="path-4-inside-4" fill="white">
<rect x="258.422" y="4.94092" width="205.061" height="205.061" rx="6" transform="rotate(60 258.422 4.94092)"/>
</mask>
<rect x="258.422" y="4.94092" width="205.061" height="205.061" rx="6" transform="rotate(60 258.422 4.94092)" stroke="#54EABD" stroke-opacity="0.6" stroke-width="62" mask="url(#path-4-inside-4)"/>
<mask id="path-5-inside-5" fill="white">
<rect x="293.535" y="19.4263" width="205.061" height="205.061" rx="6" transform="rotate(75 293.535 19.4263)"/>
</mask>
<rect x="293.535" y="19.4263" width="205.061" height="205.061" rx="6" transform="rotate(75 293.535 19.4263)" stroke="#54EABD" stroke-opacity="0.6" stroke-width="62" mask="url(#path-5-inside-5)"/>
<mask id="path-6-inside-6" fill="white">
<rect x="360.953" y="107.471" width="205.061" height="205.061" rx="6" transform="rotate(120 360.953 107.471)"/>
</mask>
<rect x="360.953" y="107.471" width="205.061" height="205.061" rx="6" transform="rotate(120 360.953 107.471)" stroke="#54EABD" stroke-opacity="0.6" stroke-width="62" mask="url(#path-6-inside-6)"/>
<path d="M51.3761 416.86C46.9121 416.86 42.6548 416.447 38.6041 415.62C34.6361 414.876 31.3708 413.512 28.8081 411.528C26.3281 409.461 25.0881 406.527 25.0881 402.724V327.828H37.9841V355.232C40.4641 353.992 43.2334 353.041 46.2921 352.38C49.3508 351.719 51.9134 351.388 53.9801 351.388C63.4041 351.388 70.4721 354.199 75.1841 359.82C79.8961 365.441 82.2521 373.253 82.2521 383.256C82.2521 390.035 81.3428 395.615 79.5241 399.996C77.7881 404.377 75.4321 407.808 72.4561 410.288C69.5628 412.685 66.2561 414.38 62.5361 415.372C58.8988 416.364 55.1788 416.86 51.3761 416.86ZM50.7561 405.576C55.6334 405.576 59.3948 404.584 62.0401 402.6C64.6854 400.616 66.5041 397.971 67.4961 394.664C68.4881 391.357 68.9841 387.72 68.9841 383.752C68.9841 376.891 67.5788 371.641 64.7681 368.004C61.9574 364.284 57.7001 362.424 51.9961 362.424C49.8468 362.424 47.4908 362.713 44.9281 363.292C42.3654 363.871 40.0508 364.78 37.9841 366.02V399.5C37.9841 401.153 38.6454 402.435 39.9681 403.344C41.2908 404.171 42.9028 404.749 44.8041 405.08C46.7881 405.411 48.7721 405.576 50.7561 405.576ZM124.041 416.86C113.956 416.86 106.433 414.008 101.473 408.304C96.5957 402.6 94.1571 394.457 94.1571 383.876C94.1571 372.716 96.6784 364.491 101.721 359.2C106.846 353.909 114.245 351.264 123.917 351.264C134.085 351.264 141.649 354.116 146.609 359.82C151.569 365.441 154.049 373.46 154.049 383.876C154.049 394.375 151.445 402.517 146.237 408.304C141.029 414.008 133.63 416.86 124.041 416.86ZM123.917 405.824C130.2 405.824 134.622 403.799 137.185 399.748C139.748 395.697 141.029 390.407 141.029 383.876C141.029 376.767 139.706 371.393 137.061 367.756C134.416 364.036 130.034 362.176 123.917 362.176C117.634 362.176 113.253 364.119 110.773 368.004C108.293 371.807 107.053 377.097 107.053 383.876C107.053 390.737 108.334 396.111 110.897 399.996C113.46 403.881 117.8 405.824 123.917 405.824ZM169.069 357.836C172.706 355.935 177.17 354.405 182.461 353.248C187.834 352.008 193.001 351.388 197.961 351.388C206.723 351.388 213.13 353.248 217.181 356.968C221.314 360.605 223.381 366.227 223.381 373.832V415H210.361V375.568C210.361 373.501 209.989 371.476 209.245 369.492C208.501 367.508 207.054 365.855 204.905 364.532C202.838 363.209 199.738 362.548 195.605 362.548C193.29 362.548 190.975 362.755 188.661 363.168C186.346 363.581 184.155 364.16 182.089 364.904V415H169.069V357.836ZM238.129 415V404.088L270.989 363.044H238.873V352.752H285.373V363.416L253.629 404.088H285.373V415H238.129ZM299.72 415V400.492H314.476V415H299.72ZM354.992 416.86C350.776 416.86 346.725 416.281 342.84 415.124C338.955 413.967 335.772 411.941 333.292 409.048C330.812 406.155 329.572 402.104 329.572 396.896C329.572 390.035 331.556 384.951 335.524 381.644C339.575 378.255 345.113 376.56 352.14 376.56C356.191 376.56 359.745 376.973 362.804 377.8C365.945 378.627 368.591 379.66 370.74 380.9V375.072C370.74 370.691 369.376 367.508 366.648 365.524C364.003 363.457 360.283 362.424 355.488 362.424C351.933 362.424 348.296 363.003 344.576 364.16C340.939 365.235 337.921 366.764 335.524 368.748V356.596C337.839 355.108 341.187 353.868 345.568 352.876C349.949 351.884 354.537 351.388 359.332 351.388C363.217 351.388 367.02 352.008 370.74 353.248C374.543 354.488 377.643 356.637 380.04 359.696C382.52 362.755 383.76 366.888 383.76 372.096L383.636 401.856C383.636 405.907 382.355 409.007 379.792 411.156C377.312 413.305 373.923 414.793 369.624 415.62C365.325 416.447 360.448 416.86 354.992 416.86ZM342.468 396.276C342.468 398.756 343.171 400.781 344.576 402.352C345.981 403.84 347.717 404.956 349.784 405.7C351.933 406.361 354.165 406.692 356.48 406.692C361.275 406.692 364.829 406.361 367.144 405.7C369.541 404.956 370.74 403.427 370.74 401.112V389.084C368.839 388.257 366.689 387.596 364.292 387.1C361.977 386.604 359.497 386.356 356.852 386.356C347.263 386.356 342.468 389.663 342.468 396.276ZM402.053 342.832V331.052H415.941V342.832H402.053ZM402.425 415V353.124H415.445L415.569 415H402.425Z" fill="#54EABD"/>
<path d="M6.81762 481L14.6176 460.99H18.1276L25.7176 481H22.2376L20.2576 475.57H12.0976L10.1176 481H6.81762ZM13.0576 472.87H19.2976L16.1776 464.32L13.0576 472.87ZM34.5995 481V460.99H37.9295V481H34.5995ZM63.1815 481V460.99H70.2015C73.4415 460.99 75.8515 461.83 77.4315 463.51C79.0115 465.19 79.8015 467.68 79.8015 470.98C79.8015 474.3 79.0115 476.8 77.4315 478.48C75.8515 480.16 73.4415 481 70.2015 481H63.1815ZM66.4815 478.21H69.8715C72.1115 478.21 73.7615 477.64 74.8215 476.5C75.8815 475.34 76.4115 473.5 76.4115 470.98C76.4115 468.48 75.8815 466.65 74.8215 465.49C73.7615 464.33 72.1115 463.75 69.8715 463.75H66.4815V478.21ZM89.7479 481V460.99H98.6279C100.708 460.99 102.308 461.5 103.428 462.52C104.548 463.52 105.108 465.03 105.108 467.05C105.108 468.45 104.718 469.7 103.938 470.8C103.178 471.88 102.108 472.57 100.728 472.87L106.068 481H101.958L97.2779 473.44H93.0479V481H89.7479ZM93.0479 470.74H97.6979C100.318 470.74 101.628 469.57 101.628 467.23C101.628 466.15 101.368 465.31 100.848 464.71C100.328 464.09 99.4579 463.78 98.2379 463.78H93.0479V470.74ZM115.699 481V460.99H119.029V481H115.699ZM135.486 481L127.896 460.99H131.616L137.436 477.1L143.196 461.02L146.676 460.99L138.936 481H135.486ZM155.56 481V460.99H168.67V463.78H158.89V469.57H167.44V472.39H158.86V478.21H168.67V481H155.56ZM179.139 481V460.99H182.319L192.939 475.69V460.99H196.089V481H193.119L182.289 466.15V481H179.139ZM221.344 481V460.99H234.454V463.78H224.674V469.57H233.224V472.39H224.644V478.21H234.454V481H221.344ZM244.922 481V460.99H248.252V470.71L256.292 460.99H260.492L252.362 469.96L261.152 481H256.802L250.082 472.48L248.252 474.52V481H244.922ZM278.69 481.33C275.71 481.33 273.41 480.48 271.79 478.78C270.19 477.06 269.39 474.47 269.39 471.01C269.39 467.59 270.18 465.01 271.76 463.27C273.36 461.53 275.67 460.66 278.69 460.66C281.67 460.66 283.97 461.52 285.59 463.24C287.21 464.94 288.02 467.53 288.02 471.01C288.02 474.41 287.22 476.98 285.62 478.72C284.04 480.46 281.73 481.33 278.69 481.33ZM278.69 478.48C280.69 478.48 282.17 477.9 283.13 476.74C284.11 475.56 284.6 473.64 284.6 470.98C284.6 468.36 284.11 466.47 283.13 465.31C282.17 464.13 280.69 463.54 278.69 463.54C276.69 463.54 275.2 464.13 274.22 465.31C273.26 466.47 272.78 468.37 272.78 471.01C272.78 473.65 273.26 475.56 274.22 476.74C275.2 477.9 276.69 478.48 278.69 478.48ZM312.492 481V460.99H315.822V478.18H325.392V481H312.492ZM334.605 481V460.99H337.935V481H334.605ZM354.392 481L346.802 460.99H350.522L356.342 477.1L362.102 461.02L365.582 460.99L357.842 481H354.392ZM374.467 481V460.99H377.797V481H374.467ZM388.523 481V460.99H391.703L402.323 475.69V460.99H405.473V481H402.503L391.673 466.15V481H388.523ZM424.903 481.33C421.863 481.33 419.523 480.49 417.883 478.81C416.243 477.13 415.423 474.52 415.423 470.98C415.423 467.48 416.243 464.89 417.883 463.21C419.523 461.51 421.853 460.66 424.873 460.66C427.233 460.66 429.463 461.12 431.563 462.04V465.22C430.503 464.7 429.463 464.27 428.443 463.93C427.423 463.59 426.373 463.42 425.293 463.42C423.093 463.42 421.453 464.01 420.373 465.19C419.293 466.37 418.753 468.3 418.753 470.98C418.753 473.66 419.293 475.59 420.373 476.77C421.473 477.95 423.083 478.54 425.203 478.54C426.603 478.54 427.873 478.34 429.013 477.94V473.17H424.813V470.35H432.313V479.53C429.973 480.73 427.503 481.33 424.903 481.33Z" fill="#54EABD"/>
</svg>
