<svg width="411" height="417" viewBox="0 0 411 417" fill="none" xmlns="http://www.w3.org/2000/svg">
<mask id="path-1-inside-1" fill="white">
<rect x="104.374" y="42.4697" width="205.061" height="205.061" rx="6"/>
</mask>
<rect x="104.374" y="42.4697" width="205.061" height="205.061" rx="6" stroke="#111111" stroke-opacity="0.6" stroke-width="62" mask="url(#path-1-inside-1)"/>
<mask id="path-2-inside-2" fill="white">
<rect x="205.5" width="205.061" height="205.061" rx="6" transform="rotate(45 205.5 0)"/>
</mask>
<rect x="205.5" width="205.061" height="205.061" rx="6" transform="rotate(45 205.5 0)" stroke="#111111" stroke-opacity="0.6" stroke-width="62" mask="url(#path-2-inside-2)"/>
<mask id="path-3-inside-3" fill="white">
<rect x="133.869" y="19.4263" width="205.061" height="205.061" rx="6" transform="rotate(15 133.869 19.4263)"/>
</mask>
<rect x="133.869" y="19.4263" width="205.061" height="205.061" rx="6" transform="rotate(15 133.869 19.4263)" stroke="#111111" stroke-opacity="0.6" stroke-width="62" mask="url(#path-3-inside-3)"/>
<mask id="path-4-inside-4" fill="white">
<rect x="243.422" y="4.94092" width="205.061" height="205.061" rx="6" transform="rotate(60 243.422 4.94092)"/>
</mask>
<rect x="243.422" y="4.94092" width="205.061" height="205.061" rx="6" transform="rotate(60 243.422 4.94092)" stroke="#111111" stroke-opacity="0.6" stroke-width="62" mask="url(#path-4-inside-4)"/>
<mask id="path-5-inside-5" fill="white">
<rect x="278.535" y="19.4263" width="205.061" height="205.061" rx="6" transform="rotate(75 278.535 19.4263)"/>
</mask>
<rect x="278.535" y="19.4263" width="205.061" height="205.061" rx="6" transform="rotate(75 278.535 19.4263)" stroke="#111111" stroke-opacity="0.6" stroke-width="62" mask="url(#path-5-inside-5)"/>
<mask id="path-6-inside-6" fill="white">
<rect x="345.953" y="107.471" width="205.061" height="205.061" rx="6" transform="rotate(120 345.953 107.471)"/>
</mask>
<rect x="345.953" y="107.471" width="205.061" height="205.061" rx="6" transform="rotate(120 345.953 107.471)" stroke="#111111" stroke-opacity="0.6" stroke-width="62" mask="url(#path-6-inside-6)"/>
<path d="M36.3761 416.86C31.9121 416.86 27.6548 416.447 23.6041 415.62C19.6361 414.876 16.3708 413.512 13.8081 411.528C11.3281 409.461 10.0881 406.527 10.0881 402.724V327.828H22.9841V355.232C25.4641 353.992 28.2334 353.041 31.2921 352.38C34.3508 351.719 36.9134 351.388 38.9801 351.388C48.4041 351.388 55.4721 354.199 60.1841 359.82C64.8961 365.441 67.2521 373.253 67.2521 383.256C67.2521 390.035 66.3428 395.615 64.5241 399.996C62.7881 404.377 60.4321 407.808 57.4561 410.288C54.5628 412.685 51.2561 414.38 47.5361 415.372C43.8988 416.364 40.1788 416.86 36.3761 416.86ZM35.7561 405.576C40.6334 405.576 44.3948 404.584 47.0401 402.6C49.6854 400.616 51.5041 397.971 52.4961 394.664C53.4881 391.357 53.9841 387.72 53.9841 383.752C53.9841 376.891 52.5788 371.641 49.7681 368.004C46.9574 364.284 42.7001 362.424 36.9961 362.424C34.8468 362.424 32.4908 362.713 29.9281 363.292C27.3654 363.871 25.0508 364.78 22.9841 366.02V399.5C22.9841 401.153 23.6454 402.435 24.9681 403.344C26.2908 404.171 27.9028 404.749 29.8041 405.08C31.7881 405.411 33.7721 405.576 35.7561 405.576ZM109.041 416.86C98.9557 416.86 91.4331 414.008 86.4731 408.304C81.5957 402.6 79.1571 394.457 79.1571 383.876C79.1571 372.716 81.6784 364.491 86.7211 359.2C91.8464 353.909 99.2451 351.264 108.917 351.264C119.085 351.264 126.649 354.116 131.609 359.82C136.569 365.441 139.049 373.46 139.049 383.876C139.049 394.375 136.445 402.517 131.237 408.304C126.029 414.008 118.63 416.86 109.041 416.86ZM108.917 405.824C115.2 405.824 119.622 403.799 122.185 399.748C124.748 395.697 126.029 390.407 126.029 383.876C126.029 376.767 124.706 371.393 122.061 367.756C119.416 364.036 115.034 362.176 108.917 362.176C102.634 362.176 98.2531 364.119 95.7731 368.004C93.2931 371.807 92.0531 377.097 92.0531 383.876C92.0531 390.737 93.3344 396.111 95.8971 399.996C98.4597 403.881 102.8 405.824 108.917 405.824ZM154.069 357.836C157.706 355.935 162.17 354.405 167.461 353.248C172.834 352.008 178.001 351.388 182.961 351.388C191.723 351.388 198.13 353.248 202.181 356.968C206.314 360.605 208.381 366.227 208.381 373.832V415H195.361V375.568C195.361 373.501 194.989 371.476 194.245 369.492C193.501 367.508 192.054 365.855 189.905 364.532C187.838 363.209 184.738 362.548 180.605 362.548C178.29 362.548 175.975 362.755 173.661 363.168C171.346 363.581 169.155 364.16 167.089 364.904V415H154.069V357.836ZM223.129 415V404.088L255.989 363.044H223.873V352.752H270.373V363.416L238.629 404.088H270.373V415H223.129ZM284.72 415V400.492H299.476V415H284.72ZM339.992 416.86C335.776 416.86 331.725 416.281 327.84 415.124C323.955 413.967 320.772 411.941 318.292 409.048C315.812 406.155 314.572 402.104 314.572 396.896C314.572 390.035 316.556 384.951 320.524 381.644C324.575 378.255 330.113 376.56 337.14 376.56C341.191 376.56 344.745 376.973 347.804 377.8C350.945 378.627 353.591 379.66 355.74 380.9V375.072C355.74 370.691 354.376 367.508 351.648 365.524C349.003 363.457 345.283 362.424 340.488 362.424C336.933 362.424 333.296 363.003 329.576 364.16C325.939 365.235 322.921 366.764 320.524 368.748V356.596C322.839 355.108 326.187 353.868 330.568 352.876C334.949 351.884 339.537 351.388 344.332 351.388C348.217 351.388 352.02 352.008 355.74 353.248C359.543 354.488 362.643 356.637 365.04 359.696C367.52 362.755 368.76 366.888 368.76 372.096L368.636 401.856C368.636 405.907 367.355 409.007 364.792 411.156C362.312 413.305 358.923 414.793 354.624 415.62C350.325 416.447 345.448 416.86 339.992 416.86ZM327.468 396.276C327.468 398.756 328.171 400.781 329.576 402.352C330.981 403.84 332.717 404.956 334.784 405.7C336.933 406.361 339.165 406.692 341.48 406.692C346.275 406.692 349.829 406.361 352.144 405.7C354.541 404.956 355.74 403.427 355.74 401.112V389.084C353.839 388.257 351.689 387.596 349.292 387.1C346.977 386.604 344.497 386.356 341.852 386.356C332.263 386.356 327.468 389.663 327.468 396.276ZM387.053 342.832V331.052H400.941V342.832H387.053ZM387.425 415V353.124H400.445L400.569 415H387.425Z" fill="#111111"/>
</svg>
