<svg width="290" height="290" viewBox="0 0 290 290" fill="none" xmlns="http://www.w3.org/2000/svg">
<g clip-path="url(#clip0_321_197)">
<mask id="mask0_321_197" style="mask-type:alpha" maskUnits="userSpaceOnUse" x="43" y="42" width="206" height="206">
<path d="M242.935 42.4697H49.874C46.5603 42.4697 43.874 45.156 43.874 48.4697V241.531C43.874 244.844 46.5603 247.531 49.874 247.531H242.935C246.249 247.531 248.935 244.844 248.935 241.531V48.4697C248.935 45.156 246.249 42.4697 242.935 42.4697Z" fill="white"/>
</mask>
<g mask="url(#mask0_321_197)">
<path d="M242.935 42.4697H49.874C46.5603 42.4697 43.874 45.156 43.874 48.4697V241.531C43.874 244.844 46.5603 247.531 49.874 247.531H242.935C246.249 247.531 248.935 244.844 248.935 241.531V48.4697C248.935 45.156 246.249 42.4697 242.935 42.4697Z" stroke="#111111" stroke-opacity="0.6" stroke-width="62"/>
</g>
<mask id="mask1_321_197" style="mask-type:alpha" maskUnits="userSpaceOnUse" x="2" y="2" width="286" height="286">
<path d="M285.757 140.757L149.243 4.24264C146.899 1.89949 143.101 1.89949 140.757 4.24264L4.24262 140.757C1.89947 143.101 1.89947 146.9 4.24262 149.243L140.757 285.757C143.101 288.101 146.899 288.101 149.243 285.757L285.757 149.243C288.101 146.9 288.101 143.101 285.757 140.757Z" fill="white"/>
</mask>
<g mask="url(#mask1_321_197)">
<path d="M285.757 140.757L149.243 4.24264C146.899 1.89949 143.101 1.89949 140.757 4.24264L4.24262 140.757C1.89947 143.101 1.89947 146.9 4.24262 149.243L140.757 285.757C143.101 288.101 146.899 288.101 149.243 285.757L285.757 149.243C288.101 146.9 288.101 143.101 285.757 140.757Z" stroke="#111111" stroke-opacity="0.6" stroke-width="62"/>
</g>
<mask id="mask2_321_197" style="mask-type:alpha" maskUnits="userSpaceOnUse" x="21" y="20" width="250" height="250">
<path d="M265.647 70.947L79.1647 20.9792C75.9639 20.1215 72.6739 22.021 71.8162 25.2218L21.8484 211.704C20.9907 214.905 22.8902 218.195 26.091 219.053L212.574 269.021C215.774 269.878 219.064 267.979 219.922 264.778L269.89 78.2955C270.748 75.0947 268.848 71.8047 265.647 70.947Z" fill="white"/>
</mask>
<g mask="url(#mask2_321_197)">
<path d="M265.647 70.947L79.1647 20.9792C75.9639 20.1215 72.6739 22.021 71.8162 25.2218L21.8484 211.704C20.9907 214.905 22.8902 218.195 26.091 219.053L212.574 269.021C215.774 269.878 219.064 267.979 219.922 264.778L269.89 78.2955C270.748 75.0947 268.848 71.8047 265.647 70.947Z" stroke="#111111" stroke-opacity="0.6" stroke-width="62"/>
</g>
<mask id="mask3_321_197" style="mask-type:alpha" maskUnits="userSpaceOnUse" x="7" y="7" width="277" height="276">
<path d="M282.453 177.333L185.922 10.1371C184.265 7.26731 180.596 6.28406 177.726 7.94092L10.5302 104.471C7.66048 106.128 6.67723 109.798 8.33408 112.668L104.865 279.863C106.521 282.733 110.191 283.716 113.061 282.059L280.256 185.529C283.126 183.872 284.109 180.203 282.453 177.333Z" fill="white"/>
</mask>
<g mask="url(#mask3_321_197)">
<path d="M282.452 177.333L185.922 10.1371C184.265 7.26731 180.595 6.28406 177.726 7.94092L10.53 104.471C7.66024 106.128 6.67698 109.798 8.33384 112.668L104.864 279.863C106.521 282.733 110.191 283.716 113.06 282.059L280.256 185.529C283.126 183.872 284.109 180.203 282.452 177.333Z" stroke="#111111" stroke-opacity="0.6" stroke-width="62"/>
</g>
<mask id="mask4_321_197" style="mask-type:alpha" maskUnits="userSpaceOnUse" x="21" y="20" width="249" height="250">
<path d="M269.556 211.704L219.588 25.2219C218.73 22.0211 215.44 20.1216 212.239 20.9792L25.7567 70.9471C22.556 71.8048 20.6565 75.0948 21.5141 78.2956L71.482 264.778C72.3396 267.979 75.6296 269.878 78.8304 269.021L265.313 219.053C268.514 218.195 270.413 214.905 269.556 211.704Z" fill="white"/>
</mask>
<g mask="url(#mask4_321_197)">
<path d="M269.556 211.704L219.588 25.2219C218.73 22.0211 215.44 20.1216 212.239 20.9792L25.7567 70.9471C22.556 71.8048 20.6565 75.0948 21.5141 78.2956L71.482 264.778C72.3396 267.979 75.6296 269.878 78.8304 269.021L265.313 219.053C268.514 218.195 270.413 214.905 269.556 211.704Z" stroke="#111111" stroke-opacity="0.6" stroke-width="62"/>
</g>
<mask id="mask5_321_197" style="mask-type:alpha" maskUnits="userSpaceOnUse" x="7" y="7" width="277" height="276">
<path d="M185.923 279.863L282.453 112.667C284.11 109.797 283.127 106.128 280.257 104.471L113.061 7.94051C110.191 6.28365 106.522 7.2669 104.865 10.1367L8.33459 177.332C6.67773 180.202 7.66099 183.872 10.5307 185.529L177.726 282.059C180.596 283.716 184.266 282.733 185.923 279.863Z" fill="white"/>
</mask>
<g mask="url(#mask5_321_197)">
<path d="M185.588 279.922L282.119 112.727C283.776 109.857 282.792 106.187 279.923 104.531L112.727 8.00002C109.857 6.34316 106.187 7.32641 104.531 10.1962L8.00011 177.392C6.34326 180.262 7.32651 183.931 10.1963 185.588L177.392 282.119C180.262 283.775 183.931 282.792 185.588 279.922Z" stroke="#111111" stroke-opacity="0.6" stroke-width="62"/>
</g>
</g>
<defs>
<clipPath id="clip0_321_197">
<rect width="290" height="290" fill="white"/>
</clipPath>
</defs>
</svg>
