<svg width="599" height="158" viewBox="0 0 599 158" fill="none" xmlns="http://www.w3.org/2000/svg">
<mask id="path-1-inside-1" fill="white">
<rect x="23.9038" y="23.1386" width="111.723" height="111.723" rx="2"/>
</mask>
<rect x="23.9038" y="23.1386" width="111.723" height="111.723" rx="2" stroke="#111111" stroke-opacity="0.6" stroke-width="46" mask="url(#path-1-inside-1)"/>
<mask id="path-2-inside-2" fill="white">
<rect x="79" width="111.723" height="111.723" rx="2" transform="rotate(45 79 0)"/>
</mask>
<rect x="79" width="111.723" height="111.723" rx="2" transform="rotate(45 79 0)" stroke="#111111" stroke-opacity="0.6" stroke-width="46" mask="url(#path-2-inside-2)"/>
<mask id="path-3-inside-3" fill="white">
<rect x="39.9735" y="10.584" width="111.723" height="111.723" rx="2" transform="rotate(15 39.9735 10.584)"/>
</mask>
<rect x="39.9735" y="10.584" width="111.723" height="111.723" rx="2" transform="rotate(15 39.9735 10.584)" stroke="#111111" stroke-opacity="0.6" stroke-width="46" mask="url(#path-3-inside-3)"/>
<mask id="path-4-inside-4" fill="white">
<rect x="99.661" y="2.69183" width="111.723" height="111.723" rx="2" transform="rotate(60 99.661 2.69183)"/>
</mask>
<rect x="99.661" y="2.69183" width="111.723" height="111.723" rx="2" transform="rotate(60 99.661 2.69183)" stroke="#111111" stroke-opacity="0.6" stroke-width="46" mask="url(#path-4-inside-4)"/>
<mask id="path-5-inside-5" fill="white">
<rect x="118.792" y="10.584" width="111.723" height="111.723" rx="2" transform="rotate(75 118.792 10.584)"/>
</mask>
<rect x="118.792" y="10.584" width="111.723" height="111.723" rx="2" transform="rotate(75 118.792 10.584)" stroke="#111111" stroke-opacity="0.6" stroke-width="46" mask="url(#path-5-inside-5)"/>
<mask id="path-6-inside-6" fill="white">
<rect x="155.522" y="58.5533" width="111.723" height="111.723" rx="2" transform="rotate(120 155.522 58.5533)"/>
</mask>
<rect x="155.522" y="58.5533" width="111.723" height="111.723" rx="2" transform="rotate(120 155.522 58.5533)" stroke="#111111" stroke-opacity="0.6" stroke-width="46" mask="url(#path-6-inside-6)"/>
<path d="M224.376 119.36C219.912 119.36 215.655 118.947 211.604 118.12C207.636 117.376 204.371 116.012 201.808 114.028C199.328 111.961 198.088 109.027 198.088 105.224V30.328H210.984V57.732C213.464 56.492 216.233 55.5413 219.292 54.88C222.351 54.2187 224.913 53.888 226.98 53.888C236.404 53.888 243.472 56.6987 248.184 62.32C252.896 67.9413 255.252 75.7533 255.252 85.756C255.252 92.5347 254.343 98.1147 252.524 102.496C250.788 106.877 248.432 110.308 245.456 112.788C242.563 115.185 239.256 116.88 235.536 117.872C231.899 118.864 228.179 119.36 224.376 119.36ZM223.756 108.076C228.633 108.076 232.395 107.084 235.04 105.1C237.685 103.116 239.504 100.471 240.496 97.164C241.488 93.8573 241.984 90.22 241.984 86.252C241.984 79.3907 240.579 74.1413 237.768 70.504C234.957 66.784 230.7 64.924 224.996 64.924C222.847 64.924 220.491 65.2133 217.928 65.792C215.365 66.3707 213.051 67.28 210.984 68.52V102C210.984 103.653 211.645 104.935 212.968 105.844C214.291 106.671 215.903 107.249 217.804 107.58C219.788 107.911 221.772 108.076 223.756 108.076ZM297.041 119.36C286.956 119.36 279.433 116.508 274.473 110.804C269.596 105.1 267.157 96.9573 267.157 86.376C267.157 75.216 269.678 66.9907 274.721 61.7C279.846 56.4093 287.245 53.764 296.917 53.764C307.085 53.764 314.649 56.616 319.609 62.32C324.569 67.9413 327.049 75.96 327.049 86.376C327.049 96.8747 324.445 105.017 319.237 110.804C314.029 116.508 306.63 119.36 297.041 119.36ZM296.917 108.324C303.2 108.324 307.622 106.299 310.185 102.248C312.748 98.1973 314.029 92.9067 314.029 86.376C314.029 79.2667 312.706 73.8933 310.061 70.256C307.416 66.536 303.034 64.676 296.917 64.676C290.634 64.676 286.253 66.6187 283.773 70.504C281.293 74.3067 280.053 79.5973 280.053 86.376C280.053 93.2373 281.334 98.6107 283.897 102.496C286.46 106.381 290.8 108.324 296.917 108.324ZM342.069 60.336C345.706 58.4347 350.17 56.9053 355.461 55.748C360.834 54.508 366.001 53.888 370.961 53.888C379.723 53.888 386.13 55.748 390.181 59.468C394.314 63.1053 396.381 68.7267 396.381 76.332V117.5H383.361V78.068C383.361 76.0013 382.989 73.976 382.245 71.992C381.501 70.008 380.054 68.3547 377.905 67.032C375.838 65.7093 372.738 65.048 368.605 65.048C366.29 65.048 363.975 65.2547 361.661 65.668C359.346 66.0813 357.155 66.66 355.089 67.404V117.5H342.069V60.336ZM411.129 117.5V106.588L443.989 65.544H411.873V55.252H458.373V65.916L426.629 106.588H458.373V117.5H411.129ZM472.72 117.5V102.992H487.476V117.5H472.72ZM527.992 119.36C523.776 119.36 519.725 118.781 515.84 117.624C511.955 116.467 508.772 114.441 506.292 111.548C503.812 108.655 502.572 104.604 502.572 99.396C502.572 92.5347 504.556 87.4507 508.524 84.144C512.575 80.7547 518.113 79.06 525.14 79.06C529.191 79.06 532.745 79.4733 535.804 80.3C538.945 81.1267 541.591 82.16 543.74 83.4V77.572C543.74 73.1907 542.376 70.008 539.648 68.024C537.003 65.9573 533.283 64.924 528.488 64.924C524.933 64.924 521.296 65.5027 517.576 66.66C513.939 67.7347 510.921 69.264 508.524 71.248V59.096C510.839 57.608 514.187 56.368 518.568 55.376C522.949 54.384 527.537 53.888 532.332 53.888C536.217 53.888 540.02 54.508 543.74 55.748C547.543 56.988 550.643 59.1373 553.04 62.196C555.52 65.2547 556.76 69.388 556.76 74.596L556.636 104.356C556.636 108.407 555.355 111.507 552.792 113.656C550.312 115.805 546.923 117.293 542.624 118.12C538.325 118.947 533.448 119.36 527.992 119.36ZM515.468 98.776C515.468 101.256 516.171 103.281 517.576 104.852C518.981 106.34 520.717 107.456 522.784 108.2C524.933 108.861 527.165 109.192 529.48 109.192C534.275 109.192 537.829 108.861 540.144 108.2C542.541 107.456 543.74 105.927 543.74 103.612V91.584C541.839 90.7573 539.689 90.096 537.292 89.6C534.977 89.104 532.497 88.856 529.852 88.856C520.263 88.856 515.468 92.1627 515.468 98.776ZM575.053 45.332V33.552H588.941V45.332H575.053ZM575.425 117.5V55.624H588.445L588.569 117.5H575.425Z" fill="#111111"/>
</svg>
