<?xml version="1.0" standalone="no"?><svg xmlns="http://www.w3.org/2000/svg" viewBox="0 0 1440 320"><path fill="#00cba9" fill-opacity="1" d="M0,160L34.3,165.3C68.6,171,137,181,206,170.7C274.3,160,343,128,411,138.7C480,149,549,203,617,202.7C685.7,203,754,149,823,117.3C891.4,85,960,75,1029,58.7C1097.1,43,1166,21,1234,37.3C1302.9,53,1371,107,1406,133.3L1440,160L1440,0L1405.7,0C1371.4,0,1303,0,1234,0C1165.7,0,1097,0,1029,0C960,0,891,0,823,0C754.3,0,686,0,617,0C548.6,0,480,0,411,0C342.9,0,274,0,206,0C137.1,0,69,0,34,0L0,0Z"></path></svg>